<svg class="sc-chart" role="img" aria-label="Battery. Gauge chart with 1 series: Level." xmlns="http://www.w3.org/2000/svg" width="400" height="300" viewBox="0 0 400 300" font-family="Segoe UI, Helvetica, Arial, sans-serif"><desc>Battery. Gauge chart with 1 series: Level.</desc><rect class="sc-bg" x="0" y="0" width="400" height="300" fill="#1a1a2e"/><text class="sc-title" x="200.0" y="26" text-anchor="middle" font-size="17" font-weight="600" fill="#f5f5fa">Battery</text><line class="sc-crosshair" x1="0" y1="46.0" x2="0" y2="254.0" stroke="#55556a" stroke-width="1" stroke-dasharray="4 3" style="display:none"/><path class="sc-gauge-track" d="M 126.5 223.5 A 104.0 104.0 0 1 1 273.5 223.5 L 262.5 212.5 A 88.4 88.4 0 1 0 137.5 212.5 Z" fill="#2e2e44"/><g class="sc-series" data-series="0"><path class="sc-gauge-band" data-index="0" data-from="0" data-to="20" d="M 126.5 223.5 A 104.0 104.0 0 0 1 97.3 133.7 L 112.7 136.2 A 88.4 88.4 0 0 0 137.5 212.5 Z" fill="#df5353"/><path class="sc-gauge-band" data-index="1" data-from="20" data-to="50" d="M 97.3 133.7 A 104.0 104.0 0 0 1 200.0 46.0 L 200.0 61.6 A 88.4 88.4 0 0 0 112.7 136.2 Z" fill="#dddf0d"/><path class="sc-gauge-band" data-index="2" data-from="50" data-to="100" d="M 200.0 46.0 A 104.0 104.0 0 0 1 273.5 223.5 L 262.5 212.5 A 88.4 88.4 0 0 0 200.0 61.6 Z" fill="#55bf3b"/><path class="sc-pointer sc-point" data-series="0" data-series-name="Level" data-y="65" data-color="#5aa2f0" d="M 254.8 85.8 L 204.6 153.9 L 192.2 159.1 L 195.4 146.1 Z" fill="#5aa2f0"/><circle class="sc-pivot" cx="200.0" cy="150.0" r="8" fill="#5aa2f0"/></g><text class="sc-gauge-value" x="200.0" y="178.0" text-anchor="middle" font-size="20" font-weight="700" fill="#f5f5fa">65</text><g class="sc-legend"><g class="sc-legend-item" data-series="0"><rect x="169.5" y="281.0" width="14" height="4" rx="2" fill="#5aa2f0"/><text x="189.5" y="288.0" font-size="12" fill="#d0d0e0">Level</text></g></g></svg>