<svg class="sc-chart" role="img" aria-label="Daily Request Latency with Outliers. Boxplot chart with 1 series: Latency (ms). Categories from Mon to Fri." xmlns="http://www.w3.org/2000/svg" width="820" height="460" viewBox="0 0 820 460" font-family="Segoe UI, Helvetica, Arial, sans-serif"><desc>Daily Request Latency with Outliers. Boxplot chart with 1 series: Latency (ms). Categories from Mon to Fri.</desc><text class="sc-title" x="410.0" y="26" text-anchor="middle" font-size="17" font-weight="600" fill="#1a1a2e">Daily Request Latency with Outliers</text><text class="sc-subtitle" x="410.0" y="46" text-anchor="middle" font-size="12" fill="#6b6b80">Tukey whiskers; points beyond 1.5*IQR flagged as outliers</text><g class="sc-axis sc-axis-y"><line class="sc-gridline" x1="62.0" y1="378.0" x2="798.0" y2="378.0" stroke="#e8e8ee" stroke-width="1"/><text x="54.0" y="382.0" text-anchor="end" font-size="11" fill="#6b6b80">0</text><line class="sc-gridline" x1="62.0" y1="315.2" x2="798.0" y2="315.2" stroke="#e8e8ee" stroke-width="1"/><text x="54.0" y="319.2" text-anchor="end" font-size="11" fill="#6b6b80">50</text><line class="sc-gridline" x1="62.0" y1="252.4" x2="798.0" y2="252.4" stroke="#e8e8ee" stroke-width="1"/><text x="54.0" y="256.4" text-anchor="end" font-size="11" fill="#6b6b80">100</text><line class="sc-gridline" x1="62.0" y1="189.6" x2="798.0" y2="189.6" stroke="#e8e8ee" stroke-width="1"/><text x="54.0" y="193.6" text-anchor="end" font-size="11" fill="#6b6b80">150</text><line class="sc-gridline" x1="62.0" y1="126.8" x2="798.0" y2="126.8" stroke="#e8e8ee" stroke-width="1"/><text x="54.0" y="130.8" text-anchor="end" font-size="11" fill="#6b6b80">200</text><line class="sc-gridline" x1="62.0" y1="64.0" x2="798.0" y2="64.0" stroke="#e8e8ee" stroke-width="1"/><text x="54.0" y="68.0" text-anchor="end" font-size="11" fill="#6b6b80">250</text></g><line class="sc-axis-line" x1="62.0" y1="378.0" x2="798.0" y2="378.0" stroke="#b6b6c2" stroke-width="1"/><g class="sc-axis sc-axis-x"><text x="135.6" y="396.0" text-anchor="middle" font-size="11" fill="#6b6b80">Mon</text><text x="282.8" y="396.0" text-anchor="middle" font-size="11" fill="#6b6b80">Tue</text><text x="430.0" y="396.0" text-anchor="middle" font-size="11" fill="#6b6b80">Wed</text><text x="577.2" y="396.0" text-anchor="middle" font-size="11" fill="#6b6b80">Thu</text><text x="724.4" y="396.0" text-anchor="middle" font-size="11" fill="#6b6b80">Fri</text></g><text x="430.0" y="454" text-anchor="middle" font-size="12" fill="#4a4a5a">Day</text><text x="14" y="221.0" text-anchor="middle" font-size="12" fill="#4a4a5a" transform="rotate(-90 14 221.0)">Latency (ms)</text><line class="sc-crosshair" x1="0" y1="64.0" x2="0" y2="378.0" stroke="#c0c0cc" stroke-width="1" stroke-dasharray="4 3" style="display:none"/><g class="sc-series" data-series="0"><rect class="sc-box sc-point" data-series="0" data-series-name="Latency (ms)" data-x="Mon" data-y="55" data-color="#2f7ed8" data-r="3.5" data-r-hover="6" cx="135.6" cy="308.9" x="76.7" y="290.1" width="117.8" height="31.4" fill="#2f7ed8" fill-opacity="0.5" stroke="#2f7ed8"/><line class="sc-median" x1="76.7" y1="308.9" x2="194.5" y2="308.9" stroke="#2f7ed8"/><line class="sc-whisker" x1="135.6" y1="290.1" x2="135.6" y2="258.7" stroke="#2f7ed8"/><line class="sc-whisker-cap" x1="106.2" y1="258.7" x2="165.0" y2="258.7" stroke="#2f7ed8"/><line class="sc-whisker" x1="135.6" y1="321.5" x2="135.6" y2="340.3" stroke="#2f7ed8"/><line class="sc-whisker-cap" x1="106.2" y1="340.3" x2="165.0" y2="340.3" stroke="#2f7ed8"/><circle class="sc-outlier" cx="135.6" cy="202.2" r="2.5" fill="#2f7ed8"/><circle class="sc-outlier" cx="135.6" cy="170.8" r="2.5" fill="#2f7ed8"/><rect class="sc-box sc-point" data-series="0" data-series-name="Latency (ms)" data-x="Tue" data-y="52" data-color="#2f7ed8" data-r="3.5" data-r-hover="6" cx="282.8" cy="312.7" x="223.9" y="295.1" width="117.8" height="30.1" fill="#2f7ed8" fill-opacity="0.5" stroke="#2f7ed8"/><line class="sc-median" x1="223.9" y1="312.7" x2="341.7" y2="312.7" stroke="#2f7ed8"/><line class="sc-whisker" x1="282.8" y1="295.1" x2="282.8" y2="267.5" stroke="#2f7ed8"/><line class="sc-whisker-cap" x1="253.4" y1="267.5" x2="312.2" y2="267.5" stroke="#2f7ed8"/><line class="sc-whisker" x1="282.8" y1="325.2" x2="282.8" y2="342.8" stroke="#2f7ed8"/><line class="sc-whisker-cap" x1="253.4" y1="342.8" x2="312.2" y2="342.8" stroke="#2f7ed8"/><rect class="sc-box sc-point" data-series="0" data-series-name="Latency (ms)" data-x="Wed" data-y="62" data-color="#2f7ed8" data-r="3.5" data-r-hover="6" cx="430.0" cy="300.1" x="371.1" y="277.5" width="117.8" height="37.7" fill="#2f7ed8" fill-opacity="0.5" stroke="#2f7ed8"/><line class="sc-median" x1="371.1" y1="300.1" x2="488.9" y2="300.1" stroke="#2f7ed8"/><line class="sc-whisker" x1="430.0" y1="277.5" x2="430.0" y2="239.8" stroke="#2f7ed8"/><line class="sc-whisker-cap" x1="400.6" y1="239.8" x2="459.4" y2="239.8" stroke="#2f7ed8"/><line class="sc-whisker" x1="430.0" y1="315.2" x2="430.0" y2="334.0" stroke="#2f7ed8"/><line class="sc-whisker-cap" x1="400.6" y1="334.0" x2="459.4" y2="334.0" stroke="#2f7ed8"/><circle class="sc-outlier" cx="430.0" cy="151.9" r="2.5" fill="#2f7ed8"/><rect class="sc-box sc-point" data-series="0" data-series-name="Latency (ms)" data-x="Thu" data-y="50" data-color="#2f7ed8" data-r="3.5" data-r-hover="6" cx="577.2" cy="315.2" x="518.3" y="297.6" width="117.8" height="30.1" fill="#2f7ed8" fill-opacity="0.5" stroke="#2f7ed8"/><line class="sc-median" x1="518.3" y1="315.2" x2="636.1" y2="315.2" stroke="#2f7ed8"/><line class="sc-whisker" x1="577.2" y1="297.6" x2="577.2" y2="265.0" stroke="#2f7ed8"/><line class="sc-whisker-cap" x1="547.8" y1="265.0" x2="606.6" y2="265.0" stroke="#2f7ed8"/><line class="sc-whisker" x1="577.2" y1="327.8" x2="577.2" y2="346.6" stroke="#2f7ed8"/><line class="sc-whisker-cap" x1="547.8" y1="346.6" x2="606.6" y2="346.6" stroke="#2f7ed8"/><circle class="sc-outlier" cx="577.2" cy="189.6" r="2.5" fill="#2f7ed8"/><circle class="sc-outlier" cx="577.2" cy="158.2" r="2.5" fill="#2f7ed8"/><circle class="sc-outlier" cx="577.2" cy="114.2" r="2.5" fill="#2f7ed8"/><rect class="sc-box sc-point" data-series="0" data-series-name="Latency (ms)" data-x="Fri" data-y="58" data-color="#2f7ed8" data-r="3.5" data-r-hover="6" cx="724.4" cy="305.2" x="665.5" y="287.6" width="117.8" height="30.1" fill="#2f7ed8" fill-opacity="0.5" stroke="#2f7ed8"/><line class="sc-median" x1="665.5" y1="305.2" x2="783.3" y2="305.2" stroke="#2f7ed8"/><line class="sc-whisker" x1="724.4" y1="287.6" x2="724.4" y2="252.4" stroke="#2f7ed8"/><line class="sc-whisker-cap" x1="695.0" y1="252.4" x2="753.8" y2="252.4" stroke="#2f7ed8"/><line class="sc-whisker" x1="724.4" y1="317.7" x2="724.4" y2="337.8" stroke="#2f7ed8"/><line class="sc-whisker-cap" x1="695.0" y1="337.8" x2="753.8" y2="337.8" stroke="#2f7ed8"/></g><g class="sc-legend"><g class="sc-legend-item" data-series="0"><rect x="375.0" y="423.0" width="14" height="4" rx="2" fill="#2f7ed8"/><text x="395.0" y="430.0" font-size="12" fill="#33334d">Latency (ms)</text></g></g></svg>