<svg class="sc-chart" role="img" aria-label="Request Latency Band. Range area chart with 1 series: p50-p95. Categories from 00:00 to 20:00." xmlns="http://www.w3.org/2000/svg" width="820" height="460" viewBox="0 0 820 460" font-family="Segoe UI, Helvetica, Arial, sans-serif"><desc>Request Latency Band. Range area chart with 1 series: p50-p95. Categories from 00:00 to 20:00.</desc><text class="sc-title" x="410.0" y="26" text-anchor="middle" font-size="17" font-weight="600" fill="#1a1a2e">Request Latency Band</text><text class="sc-subtitle" x="410.0" y="46" text-anchor="middle" font-size="12" fill="#6b6b80">p50-p95 over the day</text><g class="sc-axis sc-axis-y"><line class="sc-gridline" x1="62.0" y1="378.0" x2="798.0" y2="378.0" stroke="#e8e8ee" stroke-width="1"/><text x="54.0" y="382.0" text-anchor="end" font-size="11" fill="#6b6b80">50</text><line class="sc-gridline" x1="62.0" y1="299.5" x2="798.0" y2="299.5" stroke="#e8e8ee" stroke-width="1"/><text x="54.0" y="303.5" text-anchor="end" font-size="11" fill="#6b6b80">100</text><line class="sc-gridline" x1="62.0" y1="221.0" x2="798.0" y2="221.0" stroke="#e8e8ee" stroke-width="1"/><text x="54.0" y="225.0" text-anchor="end" font-size="11" fill="#6b6b80">150</text><line class="sc-gridline" x1="62.0" y1="142.5" x2="798.0" y2="142.5" stroke="#e8e8ee" stroke-width="1"/><text x="54.0" y="146.5" text-anchor="end" font-size="11" fill="#6b6b80">200</text><line class="sc-gridline" x1="62.0" y1="64.0" x2="798.0" y2="64.0" stroke="#e8e8ee" stroke-width="1"/><text x="54.0" y="68.0" text-anchor="end" font-size="11" fill="#6b6b80">250</text></g><line class="sc-axis-line" x1="62.0" y1="378.0" x2="798.0" y2="378.0" stroke="#b6b6c2" stroke-width="1"/><g class="sc-axis sc-axis-x"><text x="62.0" y="396.0" text-anchor="middle" font-size="11" fill="#6b6b80">00:00</text><text x="209.2" y="396.0" text-anchor="middle" font-size="11" fill="#6b6b80">04:00</text><text x="356.4" y="396.0" text-anchor="middle" font-size="11" fill="#6b6b80">08:00</text><text x="503.6" y="396.0" text-anchor="middle" font-size="11" fill="#6b6b80">12:00</text><text x="650.8" y="396.0" text-anchor="middle" font-size="11" fill="#6b6b80">16:00</text><text x="798.0" y="396.0" text-anchor="middle" font-size="11" fill="#6b6b80">20:00</text></g><text x="430.0" y="454" text-anchor="middle" font-size="12" fill="#4a4a5a">Hour</text><text x="14" y="221.0" text-anchor="middle" font-size="12" fill="#4a4a5a" transform="rotate(-90 14 221.0)">Latency (ms)</text><line class="sc-crosshair" x1="0" y1="64.0" x2="0" y2="378.0" stroke="#c0c0cc" stroke-width="1" stroke-dasharray="4 3" style="display:none"/><g class="sc-series" data-series="0"><path class="sc-series-range sc-band" data-series="0" d="M62.0 268.1 L209.2 244.5 L356.4 173.9 L503.6 79.7 L650.8 126.8 L798.0 221.0 L798.0 330.9 L650.8 268.1 L503.6 236.7 L356.4 307.4 L209.2 349.7 L62.0 362.3 Z" fill="#2f7ed8" fill-opacity="0.5" stroke="none"/><circle class="sc-point" data-series="0" data-series-name="p50-p95" data-x="00:00" data-low="60" data-high="120" data-y="60–120" data-color="#2f7ed8" data-r="3.5" data-r-hover="6" cx="62.0" cy="268.1" r="3.5"/><circle class="sc-point" data-series="0" data-series-name="p50-p95" data-x="04:00" data-low="68" data-high="135" data-y="68–135" data-color="#2f7ed8" data-r="3.5" data-r-hover="6" cx="209.2" cy="244.5" r="3.5"/><circle class="sc-point" data-series="0" data-series-name="p50-p95" data-x="08:00" data-low="95" data-high="180" data-y="95–180" data-color="#2f7ed8" data-r="3.5" data-r-hover="6" cx="356.4" cy="173.9" r="3.5"/><circle class="sc-point" data-series="0" data-series-name="p50-p95" data-x="12:00" data-low="140" data-high="240" data-y="140–240" data-color="#2f7ed8" data-r="3.5" data-r-hover="6" cx="503.6" cy="79.7" r="3.5"/><circle class="sc-point" data-series="0" data-series-name="p50-p95" data-x="16:00" data-low="120" data-high="210" data-y="120–210" data-color="#2f7ed8" data-r="3.5" data-r-hover="6" cx="650.8" cy="126.8" r="3.5"/><circle class="sc-point" data-series="0" data-series-name="p50-p95" data-x="20:00" data-low="80" data-high="150" data-y="80–150" data-color="#2f7ed8" data-r="3.5" data-r-hover="6" cx="798.0" cy="221.0" r="3.5"/></g><g class="sc-legend"><g class="sc-legend-item" data-series="0"><rect x="392.5" y="423.0" width="14" height="4" rx="2" fill="#2f7ed8"/><text x="412.5" y="430.0" font-size="12" fill="#33334d">p50-p95</text></g></g></svg>