<svg class="sc-chart" role="img" aria-label="Request Latency Budget. Waterfall chart with 1 series: Latency. Categories from Edge to Total p95." xmlns="http://www.w3.org/2000/svg" width="820" height="460" viewBox="0 0 820 460" font-family="Segoe UI, Helvetica, Arial, sans-serif"><desc>Request Latency Budget. Waterfall chart with 1 series: Latency. Categories from Edge to Total p95.</desc><rect class="sc-bg" x="0" y="0" width="820" height="460" fill="#1a1a2e"/><text class="sc-title" x="410.0" y="26" text-anchor="middle" font-size="17" font-weight="600" fill="#f5f5fa">Request Latency Budget</text><text class="sc-subtitle" x="410.0" y="46" text-anchor="middle" font-size="12" fill="#a0a0b8">Per-stage contribution to p95, dark theme</text><g class="sc-axis sc-axis-y"><line class="sc-gridline" x1="62.0" y1="378.0" x2="798.0" y2="378.0" stroke="#2e2e44" stroke-width="1"/><text x="54.0" y="382.0" text-anchor="end" font-size="11" fill="#9a9ab0">0</text><line class="sc-gridline" x1="62.0" y1="273.3" x2="798.0" y2="273.3" stroke="#2e2e44" stroke-width="1"/><text x="54.0" y="277.3" text-anchor="end" font-size="11" fill="#9a9ab0">50</text><line class="sc-gridline" x1="62.0" y1="168.7" x2="798.0" y2="168.7" stroke="#2e2e44" stroke-width="1"/><text x="54.0" y="172.7" text-anchor="end" font-size="11" fill="#9a9ab0">100</text><line class="sc-gridline" x1="62.0" y1="64.0" x2="798.0" y2="64.0" stroke="#2e2e44" stroke-width="1"/><text x="54.0" y="68.0" text-anchor="end" font-size="11" fill="#9a9ab0">150</text></g><line class="sc-axis-line" x1="62.0" y1="378.0" x2="798.0" y2="378.0" stroke="#45455a" stroke-width="1"/><g class="sc-axis sc-axis-x"><text x="114.6" y="396.0" text-anchor="middle" font-size="11" fill="#9a9ab0">Edge</text><text x="219.7" y="396.0" text-anchor="middle" font-size="11" fill="#9a9ab0">Auth</text><text x="324.9" y="396.0" text-anchor="middle" font-size="11" fill="#9a9ab0">Gateway</text><text x="430.0" y="396.0" text-anchor="middle" font-size="11" fill="#9a9ab0">Ingress p95</text><text x="535.1" y="396.0" text-anchor="middle" font-size="11" fill="#9a9ab0">Service</text><text x="640.3" y="396.0" text-anchor="middle" font-size="11" fill="#9a9ab0">Cache hit</text><text x="745.4" y="396.0" text-anchor="middle" font-size="11" fill="#9a9ab0">Total p95</text></g><text x="430.0" y="454" text-anchor="middle" font-size="12" fill="#c8c8d8">Stage</text><text x="14" y="221.0" text-anchor="middle" font-size="12" fill="#c8c8d8" transform="rotate(-90 14 221.0)">Latency (ms)</text><line class="sc-crosshair" x1="0" y1="64.0" x2="0" y2="378.0" stroke="#55556a" stroke-width="1" stroke-dasharray="4 3" style="display:none"/><g class="sc-series" data-series="0"><line class="sc-connector" x1="156.6" y1="361.3" x2="177.7" y2="361.3" stroke="#2e2e44" stroke-width="1" stroke-dasharray="2 3"/><line class="sc-connector" x1="261.8" y1="331.9" x2="282.8" y2="331.9" stroke="#2e2e44" stroke-width="1" stroke-dasharray="2 3"/><line class="sc-connector" x1="366.9" y1="285.9" x2="387.9" y2="285.9" stroke="#2e2e44" stroke-width="1" stroke-dasharray="2 3"/><line class="sc-connector" x1="472.1" y1="285.9" x2="493.1" y2="285.9" stroke="#2e2e44" stroke-width="1" stroke-dasharray="2 3"/><line class="sc-connector" x1="577.2" y1="158.2" x2="598.2" y2="158.2" stroke="#2e2e44" stroke-width="1" stroke-dasharray="2 3"/><line class="sc-connector" x1="682.3" y1="183.3" x2="703.4" y2="183.3" stroke="#2e2e44" stroke-width="1" stroke-dasharray="2 3"/><rect class="sc-bar sc-point" data-series="0" data-series-name="Latency" data-x="Edge" data-y="8" data-kind="increase" data-total="8" data-color="#e0794b" data-r="3.5" data-r-hover="6" cx="114.6" cy="361.3" x="72.5" y="361.3" width="84.1" height="16.7" fill="#e0794b"/><rect class="sc-bar sc-point" data-series="0" data-series-name="Latency" data-x="Auth" data-y="14" data-kind="increase" data-total="22" data-color="#e0794b" data-r="3.5" data-r-hover="6" cx="219.7" cy="331.9" x="177.7" y="331.9" width="84.1" height="29.3" fill="#e0794b"/><rect class="sc-bar sc-point" data-series="0" data-series-name="Latency" data-x="Gateway" data-y="22" data-kind="increase" data-total="44" data-color="#e0794b" data-r="3.5" data-r-hover="6" cx="324.9" cy="285.9" x="282.8" y="285.9" width="84.1" height="46.1" fill="#e0794b"/><rect class="sc-bar sc-point" data-series="0" data-series-name="Latency" data-x="Ingress p95" data-y="44" data-kind="total" data-total="44" data-color="#8a7ff0" data-r="3.5" data-r-hover="6" cx="430.0" cy="285.9" x="387.9" y="285.9" width="84.1" height="92.1" fill="#8a7ff0"/><rect class="sc-bar sc-point" data-series="0" data-series-name="Latency" data-x="Service" data-y="61" data-kind="increase" data-total="105" data-color="#e0794b" data-r="3.5" data-r-hover="6" cx="535.1" cy="158.2" x="493.1" y="158.2" width="84.1" height="127.7" fill="#e0794b"/><rect class="sc-bar sc-point" data-series="0" data-series-name="Latency" data-x="Cache hit" data-y="-12" data-kind="decrease" data-total="93" data-color="#3ec8a0" data-r="3.5" data-r-hover="6" cx="640.3" cy="158.2" x="598.2" y="158.2" width="84.1" height="25.1" fill="#3ec8a0"/><rect class="sc-bar sc-point" data-series="0" data-series-name="Latency" data-x="Total p95" data-y="93" data-kind="total" data-total="93" data-color="#8a7ff0" data-r="3.5" data-r-hover="6" cx="745.4" cy="183.3" x="703.4" y="183.3" width="84.1" height="194.7" fill="#8a7ff0"/></g><g class="sc-legend"><g class="sc-legend-item" data-series="0"><rect x="295.5" y="423.0" width="14" height="4" rx="2" fill="#e0794b"/><text x="315.5" y="430.0" font-size="12" fill="#d0d0e0">Increase</text></g><g class="sc-legend-item" data-series="1"><rect x="399.5" y="423.0" width="14" height="4" rx="2" fill="#3ec8a0"/><text x="419.5" y="430.0" font-size="12" fill="#d0d0e0">Decrease</text></g><g class="sc-legend-item" data-series="2"><rect x="503.5" y="423.0" width="14" height="4" rx="2" fill="#8a7ff0"/><text x="523.5" y="430.0" font-size="12" fill="#d0d0e0">Total</text></g></g></svg>