<svg class="sc-chart" role="img" aria-label="Skill Profile. Radar chart with 2 series: Alice, Bob. Categories from Frontend to Communication." xmlns="http://www.w3.org/2000/svg" width="820" height="460" viewBox="0 0 820 460" font-family="Segoe UI, Helvetica, Arial, sans-serif"><desc>Skill Profile. Radar chart with 2 series: Alice, Bob. Categories from Frontend to Communication.</desc><text class="sc-title" x="410.0" y="26" text-anchor="middle" font-size="17" font-weight="600" fill="#1a1a2e">Skill Profile</text><line class="sc-crosshair" x1="0" y1="46.0" x2="0" y2="414.0" stroke="#c0c0cc" stroke-width="1" stroke-dasharray="4 3" style="display:none"/><polygon class="sc-radar-ring" data-level="0" points="410.0,201.2 434.9,215.6 434.9,244.4 410.0,258.8 385.1,244.4 385.1,215.6" fill="none" stroke="#e8e8ee" stroke-width="1"/><polygon class="sc-radar-ring" data-level="1" points="410.0,172.4 459.9,201.2 459.9,258.8 410.0,287.6 360.1,258.8 360.1,201.2" fill="none" stroke="#e8e8ee" stroke-width="1"/><polygon class="sc-radar-ring" data-level="2" points="410.0,143.6 484.8,186.8 484.8,273.2 410.0,316.4 335.2,273.2 335.2,186.8" fill="none" stroke="#e8e8ee" stroke-width="1"/><polygon class="sc-radar-ring" data-level="3" points="410.0,114.8 509.8,172.4 509.8,287.6 410.0,345.2 310.2,287.6 310.2,172.4" fill="none" stroke="#e8e8ee" stroke-width="1"/><polygon class="sc-radar-ring" data-level="4" points="410.0,86.0 534.7,158.0 534.7,302.0 410.0,374.0 285.3,302.0 285.3,158.0" fill="none" stroke="#e8e8ee" stroke-width="1"/><line class="sc-radar-axis" data-index="0" x1="410.0" y1="230.0" x2="410.0" y2="86.0" stroke="#e8e8ee" stroke-width="1"/><line class="sc-radar-axis" data-index="1" x1="410.0" y1="230.0" x2="534.7" y2="158.0" stroke="#e8e8ee" stroke-width="1"/><line class="sc-radar-axis" data-index="2" x1="410.0" y1="230.0" x2="534.7" y2="302.0" stroke="#e8e8ee" stroke-width="1"/><line class="sc-radar-axis" data-index="3" x1="410.0" y1="230.0" x2="410.0" y2="374.0" stroke="#e8e8ee" stroke-width="1"/><line class="sc-radar-axis" data-index="4" x1="410.0" y1="230.0" x2="285.3" y2="302.0" stroke="#e8e8ee" stroke-width="1"/><line class="sc-radar-axis" data-index="5" x1="410.0" y1="230.0" x2="285.3" y2="158.0" stroke="#e8e8ee" stroke-width="1"/><text class="sc-radar-label" data-index="0" x="410.0" y="74.0" text-anchor="middle" dominant-baseline="central" font-size="11" fill="#6b6b80">Frontend</text><text class="sc-radar-label" data-index="1" x="545.1" y="152.0" text-anchor="start" dominant-baseline="central" font-size="11" fill="#6b6b80">Backend</text><text class="sc-radar-label" data-index="2" x="545.1" y="308.0" text-anchor="start" dominant-baseline="central" font-size="11" fill="#6b6b80">DevOps</text><text class="sc-radar-label" data-index="3" x="410.0" y="386.0" text-anchor="middle" dominant-baseline="central" font-size="11" fill="#6b6b80">Testing</text><text class="sc-radar-label" data-index="4" x="274.9" y="308.0" text-anchor="end" dominant-baseline="central" font-size="11" fill="#6b6b80">Design</text><text class="sc-radar-label" data-index="5" x="274.9" y="152.0" text-anchor="end" dominant-baseline="central" font-size="11" fill="#6b6b80">Communication</text><text class="sc-radar-tick" data-value="19" x="414.0" y="199.2" font-size="9" fill="#6b6b80">19</text><text class="sc-radar-tick" data-value="38" x="414.0" y="170.4" font-size="9" fill="#6b6b80">38</text><text class="sc-radar-tick" data-value="57" x="414.0" y="141.6" font-size="9" fill="#6b6b80">57</text><text class="sc-radar-tick" data-value="76" x="414.0" y="112.8" font-size="9" fill="#6b6b80">76</text><text class="sc-radar-tick" data-value="95" x="414.0" y="84.0" font-size="9" fill="#6b6b80">95</text><path class="sc-radar-poly sc-point" data-series="0" data-series-name="Alice" data-color="#2f7ed8" d="M 410.0 93.6 L 501.9 176.9 L 475.6 267.9 L 410.0 351.3 L 357.5 260.3 L 298.4 165.6 Z" fill="none" stroke="#2f7ed8" stroke-width="2"/><circle class="sc-radar-dot sc-point" data-series="0" data-index="0" data-y="90" cx="410.0" cy="93.6" r="4" fill="#2f7ed8"/><circle class="sc-radar-dot sc-point" data-series="0" data-index="1" data-y="70" cx="501.9" cy="176.9" r="4" fill="#2f7ed8"/><circle class="sc-radar-dot sc-point" data-series="0" data-index="2" data-y="50" cx="475.6" cy="267.9" r="4" fill="#2f7ed8"/><circle class="sc-radar-dot sc-point" data-series="0" data-index="3" data-y="80" cx="410.0" cy="351.3" r="4" fill="#2f7ed8"/><circle class="sc-radar-dot sc-point" data-series="0" data-index="4" data-y="40" cx="357.5" cy="260.3" r="4" fill="#2f7ed8"/><circle class="sc-radar-dot sc-point" data-series="0" data-index="5" data-y="85" cx="298.4" cy="165.6" r="4" fill="#2f7ed8"/><path class="sc-radar-poly sc-point" data-series="1" data-series-name="Bob" data-color="#f45b5b" d="M 410.0 139.1 L 534.7 158.0 L 515.0 290.6 L 410.0 320.9 L 370.6 252.7 L 318.1 176.9 Z" fill="none" stroke="#f45b5b" stroke-width="2"/><circle class="sc-radar-dot sc-point" data-series="1" data-index="0" data-y="60" cx="410.0" cy="139.1" r="4" fill="#f45b5b"/><circle class="sc-radar-dot sc-point" data-series="1" data-index="1" data-y="95" cx="534.7" cy="158.0" r="4" fill="#f45b5b"/><circle class="sc-radar-dot sc-point" data-series="1" data-index="2" data-y="80" cx="515.0" cy="290.6" r="4" fill="#f45b5b"/><circle class="sc-radar-dot sc-point" data-series="1" data-index="3" data-y="60" cx="410.0" cy="320.9" r="4" fill="#f45b5b"/><circle class="sc-radar-dot sc-point" data-series="1" data-index="4" data-y="30" cx="370.6" cy="252.7" r="4" fill="#f45b5b"/><circle class="sc-radar-dot sc-point" data-series="1" data-index="5" data-y="70" cx="318.1" cy="176.9" r="4" fill="#f45b5b"/><g class="sc-legend"><g class="sc-legend-item" data-series="0"><rect x="345.0" y="441.0" width="14" height="4" rx="2" fill="#2f7ed8"/><text x="365.0" y="448.0" font-size="12" fill="#33334d">Alice</text></g><g class="sc-legend-item" data-series="1"><rect x="428.0" y="441.0" width="14" height="4" rx="2" fill="#f45b5b"/><text x="448.0" y="448.0" font-size="12" fill="#33334d">Bob</text></g></g></svg>