<svg class="sc-chart" role="img" aria-label="Countries by GDP and Population. Pie chart with 1 series: GDP. Categories from USA to India." xmlns="http://www.w3.org/2000/svg" width="820" height="460" viewBox="0 0 820 460" font-family="Segoe UI, Helvetica, Arial, sans-serif"><desc>Countries by GDP and Population. Pie chart with 1 series: GDP. Categories from USA to India.</desc><text class="sc-title" x="410.0" y="26" text-anchor="middle" font-size="17" font-weight="600" fill="#1a1a2e">Countries by GDP and Population</text><text class="sc-subtitle" x="410.0" y="46" text-anchor="middle" font-size="12" fill="#6b6b80">Angle = GDP share, radius = population</text><line class="sc-crosshair" x1="0" y1="64.0" x2="0" y2="414.0" stroke="#c0c0cc" stroke-width="1" stroke-dasharray="4 3" style="display:none"/><g class="sc-series" data-series="0"><path class="sc-slice sc-point" data-series="0" data-series-name="GDP" data-x="USA" data-y="26" data-color="#2f7ed8" data-index="0" data-percentage="47.3%" data-r="61.2" data-r-hover="65.2" cx="410.0" cy="239.0" d="M 410.0 239.0 L 410.0 177.8 A 61.2 61.2 0 0 1 420.4 299.3 Z" fill="#2f7ed8" stroke="#ffffff" stroke-width="2"/><path class="sc-slice sc-point" data-series="0" data-series-name="GDP" data-x="China" data-y="18" data-color="#f45b5b" data-index="1" data-percentage="32.7%" data-r="175.0" data-r-hover="179.0" cx="410.0" cy="239.0" d="M 410.0 239.0 L 439.8 411.4 A 175.0 175.0 0 0 1 243.6 184.9 Z" fill="#f45b5b" stroke="#ffffff" stroke-width="2"/><path class="sc-slice sc-point" data-series="0" data-series-name="GDP" data-x="Japan" data-y="4" data-color="#8bbc21" data-index="2" data-percentage="7.3%" data-r="39.4" data-r-hover="43.4" cx="410.0" cy="239.0" d="M 410.0 239.0 L 372.6 226.8 A 39.4 39.4 0 0 1 381.8 211.6 Z" fill="#8bbc21" stroke="#ffffff" stroke-width="2"/><path class="sc-slice sc-point" data-series="0" data-series-name="GDP" data-x="Germany" data-y="4" data-color="#e4a812" data-index="3" data-percentage="7.3%" data-r="35.0" data-r-hover="39.0" cx="410.0" cy="239.0" d="M 410.0 239.0 L 384.9 214.6 A 35.0 35.0 0 0 1 398.2 206.0 Z" fill="#e4a812" stroke="#ffffff" stroke-width="2"/><path class="sc-slice sc-point" data-series="0" data-series-name="GDP" data-x="India" data-y="3" data-color="#1aadce" data-index="4" data-percentage="5.5%" data-r="175.0" data-r-hover="179.0" cx="410.0" cy="239.0" d="M 410.0 239.0 L 351.2 74.2 A 175.0 175.0 0 0 1 410.0 64.0 Z" fill="#1aadce" stroke="#ffffff" stroke-width="2"/></g><g class="sc-legend"><g class="sc-legend-item" data-series="0"><rect x="386.5" y="441.0" width="14" height="4" rx="2" fill="#2f7ed8"/><text x="406.5" y="448.0" font-size="12" fill="#33334d">GDP</text></g></g></svg>