<svg class="sc-chart" role="img" aria-label="Response-Time Spread by Service. Dumbbell chart with 2 series: Last week, This week. Categories from auth to shipping." xmlns="http://www.w3.org/2000/svg" width="820" height="460" viewBox="0 0 820 460" font-family="Segoe UI, Helvetica, Arial, sans-serif"><desc>Response-Time Spread by Service. Dumbbell chart with 2 series: Last week, This week. Categories from auth to shipping.</desc><text class="sc-title" x="410.0" y="26" text-anchor="middle" font-size="17" font-weight="600" fill="#1a1a2e">Response-Time Spread by Service</text><text class="sc-subtitle" x="410.0" y="46" text-anchor="middle" font-size="12" fill="#6b6b80">p50–p99 range, last week vs this week, grouped dumbbells</text><g class="sc-axis sc-axis-y"><line class="sc-gridline" x1="62.0" y1="378.0" x2="798.0" y2="378.0" stroke="#e8e8ee" stroke-width="1"/><text x="54.0" y="382.0" text-anchor="end" font-size="11" fill="#6b6b80">0</text><line class="sc-gridline" x1="62.0" y1="315.2" x2="798.0" y2="315.2" stroke="#e8e8ee" stroke-width="1"/><text x="54.0" y="319.2" text-anchor="end" font-size="11" fill="#6b6b80">50</text><line class="sc-gridline" x1="62.0" y1="252.4" x2="798.0" y2="252.4" stroke="#e8e8ee" stroke-width="1"/><text x="54.0" y="256.4" text-anchor="end" font-size="11" fill="#6b6b80">100</text><line class="sc-gridline" x1="62.0" y1="189.6" x2="798.0" y2="189.6" stroke="#e8e8ee" stroke-width="1"/><text x="54.0" y="193.6" text-anchor="end" font-size="11" fill="#6b6b80">150</text><line class="sc-gridline" x1="62.0" y1="126.8" x2="798.0" y2="126.8" stroke="#e8e8ee" stroke-width="1"/><text x="54.0" y="130.8" text-anchor="end" font-size="11" fill="#6b6b80">200</text><line class="sc-gridline" x1="62.0" y1="64.0" x2="798.0" y2="64.0" stroke="#e8e8ee" stroke-width="1"/><text x="54.0" y="68.0" text-anchor="end" font-size="11" fill="#6b6b80">250</text></g><line class="sc-axis-line" x1="62.0" y1="378.0" x2="798.0" y2="378.0" stroke="#b6b6c2" stroke-width="1"/><g class="sc-axis sc-axis-x"><text x="135.6" y="396.0" text-anchor="middle" font-size="11" fill="#6b6b80">auth</text><text x="282.8" y="396.0" text-anchor="middle" font-size="11" fill="#6b6b80">catalog</text><text x="430.0" y="396.0" text-anchor="middle" font-size="11" fill="#6b6b80">cart</text><text x="577.2" y="396.0" text-anchor="middle" font-size="11" fill="#6b6b80">payments</text><text x="724.4" y="396.0" text-anchor="middle" font-size="11" fill="#6b6b80">shipping</text></g><text x="430.0" y="454" text-anchor="middle" font-size="12" fill="#4a4a5a">Service</text><text x="14" y="221.0" text-anchor="middle" font-size="12" fill="#4a4a5a" transform="rotate(-90 14 221.0)">Latency (ms)</text><line class="sc-crosshair" x1="0" y1="64.0" x2="0" y2="378.0" stroke="#c0c0cc" stroke-width="1" stroke-dasharray="4 3" style="display:none"/><g class="sc-series" data-series="0"><line class="sc-connector" data-series="0" x1="106.2" y1="342.8" x2="106.2" y2="257.4" stroke="#2f7ed8" stroke-width="2"/><line class="sc-connector" data-series="0" x1="253.4" y1="326.5" x2="253.4" y2="192.1" stroke="#2f7ed8" stroke-width="2"/><line class="sc-connector" data-series="0" x1="400.6" y1="334.0" x2="400.6" y2="226.0" stroke="#2f7ed8" stroke-width="2"/><line class="sc-connector" data-series="0" x1="547.8" y1="305.2" x2="547.8" y2="96.7" stroke="#2f7ed8" stroke-width="2"/><line class="sc-connector" data-series="0" x1="695.0" y1="319.0" x2="695.0" y2="156.9" stroke="#2f7ed8" stroke-width="2"/><circle class="sc-dumbbell-low" data-series="0" cx="106.2" cy="342.8" r="5" fill="#2f7ed8" stroke="#fff" stroke-width="1"/><circle class="sc-dumbbell-low" data-series="0" cx="253.4" cy="326.5" r="5" fill="#2f7ed8" stroke="#fff" stroke-width="1"/><circle class="sc-dumbbell-low" data-series="0" cx="400.6" cy="334.0" r="5" fill="#2f7ed8" stroke="#fff" stroke-width="1"/><circle class="sc-dumbbell-low" data-series="0" cx="547.8" cy="305.2" r="5" fill="#2f7ed8" stroke="#fff" stroke-width="1"/><circle class="sc-dumbbell-low" data-series="0" cx="695.0" cy="319.0" r="5" fill="#2f7ed8" stroke="#fff" stroke-width="1"/><circle class="sc-point sc-dumbbell-high" data-series="0" data-series-name="Last week" data-x="auth" data-y="96" data-low="28" data-high="96" data-color="#2f7ed8" data-r="5" data-r-hover="7.5" cx="106.2" cy="257.4" r="5" fill="#2f7ed8" stroke="#fff" stroke-width="1"/><circle class="sc-point sc-dumbbell-high" data-series="0" data-series-name="Last week" data-x="catalog" data-y="148" data-low="41" data-high="148" data-color="#2f7ed8" data-r="5" data-r-hover="7.5" cx="253.4" cy="192.1" r="5" fill="#2f7ed8" stroke="#fff" stroke-width="1"/><circle class="sc-point sc-dumbbell-high" data-series="0" data-series-name="Last week" data-x="cart" data-y="121" data-low="35" data-high="121" data-color="#2f7ed8" data-r="5" data-r-hover="7.5" cx="400.6" cy="226.0" r="5" fill="#2f7ed8" stroke="#fff" stroke-width="1"/><circle class="sc-point sc-dumbbell-high" data-series="0" data-series-name="Last week" data-x="payments" data-y="224" data-low="58" data-high="224" data-color="#2f7ed8" data-r="5" data-r-hover="7.5" cx="547.8" cy="96.7" r="5" fill="#2f7ed8" stroke="#fff" stroke-width="1"/><circle class="sc-point sc-dumbbell-high" data-series="0" data-series-name="Last week" data-x="shipping" data-y="176" data-low="47" data-high="176" data-color="#2f7ed8" data-r="5" data-r-hover="7.5" cx="695.0" cy="156.9" r="5" fill="#2f7ed8" stroke="#fff" stroke-width="1"/></g><g class="sc-series" data-series="1"><line class="sc-connector" data-series="1" x1="165.0" y1="347.9" x2="165.0" y2="280.0" stroke="#f45b5b" stroke-width="2"/><line class="sc-connector" data-series="1" x1="312.2" y1="331.5" x2="312.2" y2="226.0" stroke="#f45b5b" stroke-width="2"/><line class="sc-connector" data-series="1" x1="459.4" y1="339.1" x2="459.4" y2="247.4" stroke="#f45b5b" stroke-width="2"/><line class="sc-connector" data-series="1" x1="606.6" y1="316.5" x2="606.6" y2="149.4" stroke="#f45b5b" stroke-width="2"/><line class="sc-connector" data-series="1" x1="753.8" y1="322.7" x2="753.8" y2="178.3" stroke="#f45b5b" stroke-width="2"/><polygon class="sc-dumbbell-low" data-series="1" cx="165.0" cy="347.9" points="165.0,342.9 170.0,347.9 165.0,352.9 160.0,347.9" fill="#f45b5b" stroke="#fff" stroke-width="1"/><polygon class="sc-dumbbell-low" data-series="1" cx="312.2" cy="331.5" points="312.2,326.5 317.2,331.5 312.2,336.5 307.2,331.5" fill="#f45b5b" stroke="#fff" stroke-width="1"/><polygon class="sc-dumbbell-low" data-series="1" cx="459.4" cy="339.1" points="459.4,334.1 464.4,339.1 459.4,344.1 454.4,339.1" fill="#f45b5b" stroke="#fff" stroke-width="1"/><polygon class="sc-dumbbell-low" data-series="1" cx="606.6" cy="316.5" points="606.6,311.5 611.6,316.5 606.6,321.5 601.6,316.5" fill="#f45b5b" stroke="#fff" stroke-width="1"/><polygon class="sc-dumbbell-low" data-series="1" cx="753.8" cy="322.7" points="753.8,317.7 758.8,322.7 753.8,327.7 748.8,322.7" fill="#f45b5b" stroke="#fff" stroke-width="1"/><polygon class="sc-point sc-dumbbell-high" data-series="1" data-series-name="This week" data-x="auth" data-y="78" data-low="24" data-high="78" data-color="#f45b5b" data-r="5" data-r-hover="7.5" cx="165.0" cy="280.0" points="165.0,275.0 170.0,280.0 165.0,285.0 160.0,280.0" fill="#f45b5b" stroke="#fff" stroke-width="1"/><polygon class="sc-point sc-dumbbell-high" data-series="1" data-series-name="This week" data-x="catalog" data-y="121" data-low="37" data-high="121" data-color="#f45b5b" data-r="5" data-r-hover="7.5" cx="312.2" cy="226.0" points="312.2,221.0 317.2,226.0 312.2,231.0 307.2,226.0" fill="#f45b5b" stroke="#fff" stroke-width="1"/><polygon class="sc-point sc-dumbbell-high" data-series="1" data-series-name="This week" data-x="cart" data-y="104" data-low="31" data-high="104" data-color="#f45b5b" data-r="5" data-r-hover="7.5" cx="459.4" cy="247.4" points="459.4,242.4 464.4,247.4 459.4,252.4 454.4,247.4" fill="#f45b5b" stroke="#fff" stroke-width="1"/><polygon class="sc-point sc-dumbbell-high" data-series="1" data-series-name="This week" data-x="payments" data-y="182" data-low="49" data-high="182" data-color="#f45b5b" data-r="5" data-r-hover="7.5" cx="606.6" cy="149.4" points="606.6,144.4 611.6,149.4 606.6,154.4 601.6,149.4" fill="#f45b5b" stroke="#fff" stroke-width="1"/><polygon class="sc-point sc-dumbbell-high" data-series="1" data-series-name="This week" data-x="shipping" data-y="159" data-low="44" data-high="159" data-color="#f45b5b" data-r="5" data-r-hover="7.5" cx="753.8" cy="178.3" points="753.8,173.3 758.8,178.3 753.8,183.3 748.8,178.3" fill="#f45b5b" stroke="#fff" stroke-width="1"/></g><g class="sc-legend"><g class="sc-legend-item" data-series="0"><rect x="330.0" y="423.0" width="14" height="4" rx="2" fill="#2f7ed8"/><text x="350.0" y="430.0" font-size="12" fill="#33334d">Last week</text></g><g class="sc-legend-item" data-series="1"><rect x="441.0" y="423.0" width="14" height="4" rx="2" fill="#f45b5b"/><text x="461.0" y="430.0" font-size="12" fill="#33334d">This week</text></g></g></svg>